<svg width="22" height="21" viewBox="0 0 22 21" fill="none" xmlns="http://www.w3.org/2000/svg">
    <path fill-rule="evenodd" clip-rule="evenodd" d="M18.8442 0.38556C18.6865 -0.0575564 18.0599 -0.0575565 17.9021 0.38556L17.3221 2.01524C17.2758 2.14532 17.1778 2.25046 17.0512 2.30574L15.4488 3.00602C15.0491 3.1807 15.0491 3.74767 15.4488 3.92234L17.0512 4.62262C17.1778 4.67791 17.2758 4.78305 17.3221 4.91312L17.9021 6.54281C18.0599 6.98592 18.6865 6.98592 18.8442 6.54281L19.4243 4.91312C19.4706 4.78305 19.5686 4.67791 19.6951 4.62262L21.2976 3.92234C21.6973 3.74767 21.6973 3.1807 21.2976 3.00602L19.6951 2.30574C19.5686 2.25046 19.4706 2.14532 19.4243 2.01524L18.8442 0.38556ZM11.813 1.81513C11.2807 -0.156458 8.48358 -0.156443 7.95127 1.81513L6.59569 6.83595L1.87056 8.63027C0.150571 9.28342 0.150569 11.7166 1.87056 12.3697L6.59569 14.1641L7.95127 19.1849C8.48358 21.1565 11.2807 21.1564 11.813 19.1849L13.1686 14.1641L17.8937 12.3697C19.6137 11.7166 19.6137 9.28342 17.8937 8.63027L13.1686 6.83595L11.813 1.81513ZM9.88213 2.33645L11.2377 7.35726C11.4049 7.97649 11.8589 8.47797 12.4586 8.70568L17.1837 10.5L12.4586 12.2943C11.8589 12.522 11.4049 13.0235 11.2377 13.6427L9.88213 18.6636L8.52656 13.6427C8.35937 13.0235 7.90533 12.522 7.3057 12.2943L2.58057 10.5L7.30571 8.70568C7.90533 8.47797 8.35937 7.97649 8.52656 7.35726L9.88213 2.33645Z" fill="currentColor"/>
</svg>
