<svg width="21" height="21" viewBox="0 0 21 21" fill="none" xmlns="http://www.w3.org/2000/svg">
    <path fill-rule="evenodd" clip-rule="evenodd" d="M4.3346 2.43506H16.6679C17.2202 2.43506 17.6679 2.88278 17.6679 3.43506V4.0781H3.3346V3.43506C3.3346 2.88277 3.78232 2.43506 4.3346 2.43506ZM19.6679 3.43506V4.22799C20.395 4.52741 20.9069 5.24298 20.9069 6.0781V8.47733C20.9069 8.49163 20.9066 8.50588 20.906 8.52007C20.9002 9.66729 20.4274 10.704 19.6679 11.4499V17.565C19.6679 19.2219 18.3248 20.565 16.6679 20.565H4.33461C2.67775 20.565 1.3346 19.2219 1.3346 17.565V11.4539C0.568062 10.7032 0.0924072 9.65659 0.0924072 8.49888V8.49559L0.0924432 8.48629L0.0924072 8.47777V6.0781C0.0924072 5.24173 0.605782 4.52528 1.3346 4.22665V3.43506C1.3346 1.77821 2.67775 0.435059 4.3346 0.435059H16.6679C18.3248 0.435059 19.6679 1.7782 19.6679 3.43506ZM16.77 12.6349C17.0784 12.6349 17.3788 12.6011 17.6679 12.5371V17.565C17.6679 18.1173 17.2202 18.565 16.6679 18.565H12.6697V16.6176C12.6697 16.0653 12.222 15.6176 11.6697 15.6176H9.33096C8.77867 15.6176 8.33096 16.0653 8.33096 16.6176V18.565H4.33461C3.78232 18.565 3.3346 18.1173 3.3346 17.565V12.5381C3.62244 12.6015 3.92152 12.6349 4.22841 12.6349C5.48323 12.6349 6.60632 12.0763 7.36428 11.1955C8.12224 12.0763 9.24533 12.6349 10.5001 12.6349C11.7545 12.6349 12.8771 12.0767 13.6351 11.1966C14.393 12.0767 15.5157 12.6349 16.77 12.6349ZM18.9069 6.0781L2.09241 6.0781V8.466L2.09247 8.48114L2.09241 8.49888C2.09241 9.67856 3.04873 10.6349 4.22841 10.6349C5.12757 10.6349 5.89932 10.079 6.21405 9.28838C6.39036 8.84551 6.82631 8.50394 7.36428 8.50394C7.90225 8.50394 8.3382 8.84551 8.51451 9.28838C8.82924 10.079 9.60099 10.6349 10.5001 10.6349C11.3995 10.6349 12.1714 10.0787 12.486 9.28779C12.6621 8.84513 13.0977 8.50394 13.6351 8.50394C14.1724 8.50394 14.6081 8.84513 14.7842 9.28779C15.0987 10.0787 15.8706 10.6349 16.77 10.6349C17.9497 10.6349 18.906 9.67856 18.906 8.49888L18.906 8.48498C18.9059 8.4684 18.9062 8.45189 18.9069 8.43547L18.9069 6.0781Z" fill="currentColor"/>
</svg>
