<svg width="21" height="22" viewBox="0 0 21 22" fill="none" xmlns="http://www.w3.org/2000/svg">
    <path fill-rule="evenodd" clip-rule="evenodd" d="M5.60551 0.721191C5.09741 0.721191 4.68551 1.13309 4.68551 1.64119V3.11155H3.5177C1.86085 3.11155 0.5177 4.45469 0.5177 6.11155V18.5674C0.5177 20.2242 1.86085 21.5674 3.5177 21.5674H17.5325C19.1894 21.5674 20.5325 20.2242 20.5325 18.5674V6.11155C20.5325 4.45469 19.1894 3.11155 17.5325 3.11155H16.3654V1.64119C16.3654 1.13309 15.9535 0.721191 15.4454 0.721191C14.9373 0.721191 14.5254 1.13309 14.5254 1.64119V3.11155H6.52551V1.64119C6.52551 1.13309 6.11361 0.721191 5.60551 0.721191ZM4.68551 5.11155V5.17192C4.68551 5.68002 5.09741 6.09192 5.60551 6.09192C6.11361 6.09192 6.52551 5.68002 6.52551 5.17192V5.11155H14.5254V5.17192C14.5254 5.68002 14.9373 6.09192 15.4454 6.09192C15.9535 6.09192 16.3654 5.68002 16.3654 5.17192V5.11155H17.5325C18.0848 5.11155 18.5325 5.55926 18.5325 6.11155V18.5674C18.5325 19.1196 18.0848 19.5674 17.5325 19.5674H3.5177C2.96542 19.5674 2.5177 19.1196 2.5177 18.5674V6.11155C2.5177 5.55926 2.96542 5.11155 3.5177 5.11155H4.68551ZM10.9468 8.25988C10.7505 7.95019 10.2986 7.95019 10.1023 8.25988L8.93785 10.0965C8.86967 10.204 8.76304 10.2815 8.6397 10.3131L6.53319 10.853C6.17798 10.944 6.03835 11.3737 6.27221 11.6562L7.65908 13.3311C7.74028 13.4292 7.78101 13.5546 7.77296 13.6816L7.63547 15.8519C7.61228 16.2178 7.97785 16.4834 8.31873 16.3483L10.3403 15.5469C10.4586 15.5 10.5904 15.5 10.7088 15.5469L12.7303 16.3483C13.0712 16.4834 13.4368 16.2178 13.4136 15.8519L13.2761 13.6816C13.2681 13.5546 13.3088 13.4292 13.39 13.3311L14.7769 11.6562C15.0107 11.3737 14.8711 10.944 14.5159 10.853L12.4094 10.3131C12.286 10.2815 12.1794 10.204 12.1112 10.0965L10.9468 8.25988Z" fill="currentColor"/>
</svg>
